<?xml version="1.0" encoding="utf-8"?>
<!-- Generator: Adobe Illustrator 23.0.2, SVG Export Plug-In . SVG Version: 6.00 Build 0)  -->
<svg version="1.1" id="Layer_1" xmlns="http://www.w3.org/2000/svg" xmlns:xlink="http://www.w3.org/1999/xlink" x="0px" y="0px"
	 viewBox="0 0 256 256" style="enable-background:new 0 0 256 256;" xml:space="preserve">
<style type="text/css">
	.st0{fill:#75797A;stroke:#000000;stroke-miterlimit:10;}
	.st1{fill:none;}
	.st2{enable-background:new    ;}
	.st3{fill:#FFDF00;}
	.st4{fill:#D4AF37;}
</style>
<g>
	<rect class="st0" width="256" height="256"/>
</g>
<g>
	<rect x="19.7" y="68.7" class="st1" width="216.6" height="154.8"/>
	<g class="st2">
		<path class="st3" d="M161,121.7l46.7-67.5h-60L131,84.3l-16.7-30.1H54.6l46.7,67.5L51,194h59.7l20.3-33.3l20.5,33.3h59.7
			L161,121.7z M131,127.4l-36.3,49.9h-8.3l40.5-55.5L89.9,71h8.3l32.8,45l32.8-45h8.3l-36.9,50.7l40.5,55.5h-8.3L131,127.4z"/>
		<polygon class="st4" points="185.2,181.3 163.2,181.3 130.6,134.9 101.2,181.3 76.2,181.3 116.3,121.6 77.4,65.9 99,65.9 
			131.3,111.3 164.5,65.5 188.8,65.9 143.8,122.3 		"/>
	</g>
</g>
</svg>
